Coordinates
version=1
nRows=34
nColumns=38
inDegrees=no

Units are S.I. units (second, meters, Newtons, ...)
If the header above contains a line with 'inDegrees', this indicates whether rotational values are in degrees (yes) or radians (no).

endheader
time	pelvis_tilt	pelvis_list	pelvis_rotation	pelvis_tx	pelvis_ty	pelvis_tz	hip_flexion_r	hip_adduction_r	hip_rotation_r	knee_angle_r	ankle_angle_r	subtalar_angle_r	mtp_angle_r	hip_flexion_l	hip_adduction_l	hip_rotation_l	knee_angle_l	ankle_angle_l	subtalar_angle_l	mtp_angle_l	lumbar_extension	lumbar_bending	lumbar_rotation	arm_flex_r	arm_add_r	arm_rot_r	elbow_flex_r	pro_sup_r	wrist_flex_r	wrist_dev_r	arm_flex_l	arm_add_l	arm_rot_l	elbow_flex_l	pro_sup_l	wrist_flex_l	wrist_dev_l
0	3.05951	1.3124	-1.35843	0.639035	-0.268339	0.953016	-0.252303	0.0136126	-0.0529257	0.235429	-0.24435	0	0	-0.265008	-0.0723276	0.012315	0.203132	-0.218932	0	0	-0.311651	0.0848855	-0.140227	0.0387981	-0.314255	0.463281	0.830025	1.5708	0	0	0.0260487	-0.284757	0.31202	0.800007	1.5708	0	0
0.01	3.05987	1.31258	-1.35834	0.638978	-0.268307	0.953006	-0.252423	0.0135907	-0.0535064	0.235021	-0.244649	0	0	-0.264846	-0.0723592	0.0121933	0.203089	-0.21907	0	0	-0.31209	0.0856396	-0.140675	0.0407602	-0.313079	0.462796	0.832054	1.5708	0	0	0.027144	-0.283724	0.311957	0.805027	1.5708	0	0
0.02	3.06019	1.31259	-1.35841	0.638919	-0.268289	0.953014	-0.252681	0.0135312	-0.0534765	0.234603	-0.244943	0	0	-0.265103	-0.0722975	0.0123373	0.202569	-0.219177	0	0	-0.312641	0.0865469	-0.14094	0.0425344	-0.312195	0.462107	0.834166	1.5708	0	0	0.0282908	-0.282757	0.312689	0.809465	1.5708	0	0
0.03	3.06041	1.31273	-1.35845	0.638851	-0.268264	0.953023	-0.252793	0.0134197	-0.0532177	0.234114	-0.245203	0	0	-0.265146	-0.0721863	0.0123246	0.202223	-0.219256	0	0	-0.312904	0.0875308	-0.141046	0.0439338	-0.311517	0.460943	0.836231	1.5708	0	0	0.029461	-0.282071	0.314885	0.813916	1.5708	0	0
0.04	3.06081	1.31293	-1.35853	0.638787	-0.26822	0.953027	-0.252886	0.0132575	-0.053242	0.233629	-0.245359	0	0	-0.265072	-0.0721031	0.0122292	0.20201	-0.219335	0	0	-0.312921	0.0885203	-0.141119	0.0451366	-0.310844	0.459774	0.837811	1.5708	0	0	0.030621	-0.28172	0.31849	0.818176	1.5708	0	0
0.05	3.06086	1.31315	-1.35832	0.638727	-0.268172	0.953015	-0.252922	0.0132013	-0.0532426	0.233254	-0.245303	0	0	-0.264975	-0.0720994	0.0119951	0.201757	-0.219367	0	0	-0.312719	0.0894509	-0.140997	0.0460472	-0.309948	0.457949	0.838798	1.5708	0	0	0.0316983	-0.281249	0.322141	0.822009	1.5708	0	0
0.06	3.06065	1.31364	-1.35787	0.638665	-0.268111	0.952983	-0.252648	0.0131783	-0.0530349	0.232943	-0.245198	0	0	-0.264539	-0.0720862	0.0118441	0.201629	-0.219363	0	0	-0.312051	0.0905672	-0.14087	0.046699	-0.30927	0.456052	0.839716	1.5708	0	0	0.0329141	-0.280081	0.325396	0.825184	1.5708	0	0
0.07	3.06057	1.31446	-1.35746	0.638604	-0.268025	0.952931	-0.25212	0.0131057	-0.0528845	0.232548	-0.24513	0	0	-0.263724	-0.071967	0.0120491	0.20159	-0.219337	0	0	-0.310888	0.0915774	-0.140838	0.0467741	-0.30875	0.452981	0.840928	1.5708	0	0	0.0340216	-0.278741	0.328742	0.828442	1.5708	0	0
0.08	3.06075	1.31517	-1.35722	0.638531	-0.267946	0.952896	-0.251674	0.0129717	-0.0532414	0.232208	-0.245165	0	0	-0.263002	-0.071848	0.0120987	0.201583	-0.219357	0	0	-0.309953	0.0924149	-0.140811	0.0466326	-0.308545	0.449365	0.842497	1.5708	0	0	0.034936	-0.277799	0.332743	0.831577	1.5708	0	0
0.09	3.06137	1.31526	-1.35743	0.638428	-0.267909	0.952896	-0.25175	0.0127966	-0.0536438	0.232102	-0.24515	0	0	-0.262788	-0.0717618	0.0114179	0.201843	-0.219341	0	0	-0.309799	0.0933489	-0.140547	0.0472551	-0.308449	0.448875	0.842747	1.5708	0	0	0.036116	-0.277038	0.337337	0.834254	1.5708	0	0
0.1	3.0623	1.31514	-1.35789	0.638297	-0.267907	0.952894	-0.251948	0.0125336	-0.0540429	0.232202	-0.245076	0	0	-0.262756	-0.0715909	0.011039	0.202104	-0.219337	0	0	-0.310074	0.0942703	-0.140085	0.0481806	-0.308323	0.450118	0.842033	1.5708	0	0	0.0373017	-0.276063	0.341516	0.836604	1.5708	0	0
0.11	3.06289	1.31526	-1.35797	0.638171	-0.267914	0.952869	-0.251843	0.0123633	-0.0541936	0.232324	-0.244995	0	0	-0.262389	-0.0714411	0.0111176	0.202445	-0.21925	0	0	-0.310047	0.0951556	-0.139759	0.0488793	-0.308419	0.450575	0.84147	1.5708	0	0	0.0382462	-0.274988	0.345281	0.838572	1.5708	0	0
0.12	3.06269	1.31565	-1.35732	0.638097	-0.267899	0.952831	-0.251412	0.0124372	-0.0541545	0.232458	-0.244971	0	0	-0.261788	-0.0714783	0.0114093	0.202707	-0.219162	0	0	-0.309505	0.0959291	-0.139468	0.0493364	-0.308665	0.450798	0.840797	1.5708	0	0	0.0390547	-0.273999	0.348836	0.839816	1.5708	0	0
0.13	3.0624	1.31629	-1.35662	0.638044	-0.267839	0.952812	-0.250822	0.0125386	-0.0539135	0.232407	-0.245007	0	0	-0.261029	-0.0714766	0.0116798	0.202825	-0.219128	0	0	-0.308438	0.096754	-0.139922	0.0498855	-0.308641	0.451006	0.839638	1.5708	0	0	0.0395169	-0.273574	0.353167	0.840366	1.5708	0	0
0.14	3.06244	1.31679	-1.35627	0.637989	-0.267765	0.952806	-0.250478	0.0125155	-0.0538202	0.232159	-0.245042	0	0	-0.260499	-0.0713854	0.0120237	0.20283	-0.219152	0	0	-0.307619	0.0975482	-0.140297	0.0502949	-0.308802	0.451224	0.838516	1.5708	0	0	0.040063	-0.272797	0.356778	0.840164	1.5708	0	0
0.15	3.06271	1.3172	-1.35615	0.637915	-0.267681	0.952795	-0.250354	0.0124182	-0.0541782	0.231809	-0.24509	0	0	-0.260141	-0.0712264	0.0125189	0.202726	-0.219273	0	0	-0.306961	0.0982514	-0.140598	0.0504913	-0.309144	0.451384	0.83745	1.5708	0	0	0.040623	-0.271937	0.359958	0.839541	1.5708	0	0
0.16	3.06315	1.31754	-1.3562	0.637835	-0.267586	0.952773	-0.250353	0.0123179	-0.0545848	0.231479	-0.245135	0	0	-0.259924	-0.0710883	0.0128982	0.202523	-0.219456	0	0	-0.306327	0.0988188	-0.140825	0.0504779	-0.309592	0.451411	0.83629	1.5708	0	0	0.0410907	-0.271139	0.363095	0.838518	1.5708	0	0
0.17	3.06369	1.31774	-1.35639	0.637762	-0.267494	0.952756	-0.250507	0.0121899	-0.0549063	0.231151	-0.245156	0	0	-0.259822	-0.070968	0.0129253	0.202432	-0.219635	0	0	-0.305823	0.0993348	-0.140914	0.0503011	-0.310204	0.451163	0.835194	1.5708	0	0	0.0415859	-0.270316	0.366232	0.837141	1.5708	0	0
0.18	3.06439	1.31778	-1.35677	0.637704	-0.267412	0.952758	-0.250831	0.0120597	-0.0551913	0.230814	-0.245099	0	0	-0.259904	-0.0708222	0.0129624	0.202306	-0.219825	0	0	-0.305566	0.0997172	-0.141019	0.0500725	-0.310741	0.450524	0.834103	1.5708	0	0	0.042077	-0.269548	0.36926	0.835274	1.5708	0	0
0.19	3.06535	1.31769	-1.35746	0.63766	-0.26734	0.952774	-0.251225	0.0118682	-0.0553511	0.230585	-0.244999	0	0	-0.26016	-0.0705983	0.0130523	0.202083	-0.220096	0	0	-0.305617	0.0998652	-0.141014	0.0498518	-0.311432	0.44987	0.833065	1.5708	0	0	0.0424405	-0.26902	0.372081	0.833332	1.5708	0	0
0.2	3.06644	1.31748	-1.35832	0.63759	-0.267278	0.952793	-0.251633	0.0116297	-0.0554232	0.230572	-0.244915	0	0	-0.260585	-0.0703809	0.0128906	0.201835	-0.220352	0	0	-0.305895	0.0999569	-0.140904	0.0496744	-0.31237	0.449535	0.832058	1.5708	0	0	0.0428044	-0.268483	0.374592	0.831118	1.5708	0	0
0.21	3.06715	1.31715	-1.35893	0.637522	-0.267209	0.952806	-0.252043	0.0116216	-0.0554883	0.230803	-0.244869	0	0	-0.261156	-0.0703025	0.0124094	0.201601	-0.220631	0	0	-0.306288	0.100126	-0.140643	0.0494569	-0.31335	0.449237	0.831068	1.5708	0	0	0.0432549	-0.267775	0.376614	0.828661	1.5708	0	0
0.22	3.06802	1.31659	-1.35978	0.637457	-0.267131	0.952835	-0.252715	0.011733	-0.0554891	0.231026	-0.244923	0	0	-0.262073	-0.0701888	0.0119596	0.201156	-0.220994	0	0	-0.306869	0.100237	-0.14032	0.0491663	-0.314344	0.448849	0.830118	1.5708	0	0	0.0435146	-0.267223	0.378579	0.826119	1.5708	0	0
0.23	3.06919	1.31599	-1.36093	0.6374	-0.267061	0.952873	-0.253427	0.0113511	-0.0555785	0.231084	-0.245139	0	0	-0.26307	-0.0699413	0.0117727	0.200607	-0.221358	0	0	-0.307539	0.100207	-0.140084	0.048803	-0.315418	0.448195	0.829312	1.5708	0	0	0.0435846	-0.26685	0.380367	0.823517	1.5708	0	0
0.24	3.07063	1.31514	-1.36232	0.637354	-0.266996	0.952921	-0.25428	0.010814	-0.0559171	0.231486	-0.245363	0	0	-0.264347	-0.0697434	0.0113802	0.200084	-0.221626	0	0	-0.308453	0.100213	-0.140072	0.0485368	-0.316605	0.447781	0.828597	1.5708	0	0	0.04356	-0.266247	0.381507	0.820499	1.5708	0	0
0.25	3.07189	1.3139	-1.36347	0.63728	-0.266945	0.95299	-0.25642	0.010918	-0.0559599	0.229864	-0.245695	0	0	-0.266051	-0.0697258	0.0108124	0.199528	-0.221897	0	0	-0.309732	0.100364	-0.140257	0.0485444	-0.31792	0.448053	0.827672	1.5708	0	0	0.0435114	-0.265576	0.382299	0.817164	1.5708	0	0
0.26	3.07366	1.31241	-1.36508	0.637195	-0.266894	0.95305	-0.258445	0.0108593	-0.056368	0.229421	-0.245822	0	0	-0.268035	-0.0696396	0.0101586	0.199052	-0.222077	0	0	-0.31096	0.10045	-0.140959	0.0489287	-0.319252	0.449328	0.826427	1.5708	0	0	0.0429729	-0.265139	0.382486	0.814011	1.5708	0	0
0.27	3.07554	1.3107	-1.3668	0.637106	-0.266837	0.953113	-0.260808	0.0108623	-0.0569472	0.228819	-0.245993	0	0	-0.270253	-0.0695396	0.00942998	0.198616	-0.222168	0	0	-0.311943	0.100542	-0.142311	0.0497975	-0.320573	0.451704	0.82472	1.5708	0	0	0.0418256	-0.264777	0.382021	0.810828	1.5708	0	0
0.28	3.0774	1.30883	-1.36842	0.637	-0.266784	0.953165	-0.263346	0.0106154	-0.0577612	0.228057	-0.246247	0	0	-0.272531	-0.0694499	0.00867082	0.198386	-0.222085	0	0	-0.312561	0.100742	-0.144527	0.0513195	-0.321987	0.455461	0.8226	1.5708	0	0	0.0399307	-0.264468	0.380984	0.807697	1.5708	0	0
0.29	3.079	1.30633	-1.36982	0.636894	-0.266775	0.953215	-0.266496	0.0106216	-0.0585948	0.227274	-0.246602	0	0	-0.275412	-0.0695328	0.00792156	0.198223	-0.221977	0	0	-0.313093	0.101096	-0.148124	0.054475	-0.323468	0.462598	0.8195	1.56846	0	0	0.0368053	-0.26484	0.378672	0.805245	1.5708	0	0
0.3	3.08112	1.30212	-1.37183	0.636757	-0.266804	0.95333	-0.271645	0.0105113	-0.0599493	0.225909	-0.247285	0	0	-0.280315	-0.0698541	0.00609194	0.197761	-0.221715	0	0	-0.313245	0.101822	-0.155464	0.0620939	-0.325133	0.478985	0.813098	1.55404	0	0	0.0314067	-0.264993	0.372503	0.80163	1.5708	0	0
0.31	3.08251	1.29701	-1.37334	0.636617	-0.266835	0.953433	-0.277626	0.010774	-0.0612556	0.224904	-0.247567	0	0	-0.286236	-0.0705075	0.00383681	0.19733	-0.22116	0	0	-0.311336	0.103127	-0.165932	0.0730355	-0.32599	0.501208	0.80265	1.53948	0	0	0.0239548	-0.26527	0.364769	0.796461	1.5708	0	0
0.32	3.08212	1.29351	-1.37328	0.636558	-0.266792	0.953468	-0.281616	0.0113784	-0.0619491	0.224415	-0.247556	0	0	-0.290354	-0.071285	0.00250824	0.197057	-0.220337	0	0	-0.307633	0.105062	-0.176794	0.0837088	-0.326521	0.523591	0.79276	1.52557	0	0	0.0163795	-0.264812	0.356835	0.790568	1.5708	0	0
0.33	3.08038	1.29157	-1.37191	0.636648	-0.266726	0.953462	-0.283685	0.0123757	-0.0614845	0.224313	-0.247273	0	0	-0.292535	-0.0721203	0.00287185	0.197251	-0.219509	0	0	-0.304832	0.106329	-0.183593	0.0903803	-0.327036	0.539373	0.786541	1.50994	0	0	0.0116254	-0.265157	0.353017	0.785491	1.5708	0	0
